<svg width="18" height="27" viewBox="0 0 18 27" fill="none" xmlns="http://www.w3.org/2000/svg">
<g id="Group">
<path id="Vector" fill-rule="evenodd" clip-rule="evenodd" d="M9.00013 0.357788C9.24638 0.357788 9.48255 0.455613 9.65668 0.629743C9.83081 0.803872 9.92864 1.04004 9.92864 1.2863L9.92864 23.1862L15.7708 17.3421C15.9452 17.1678 16.1817 17.0698 16.4282 17.0698C16.6748 17.0698 16.9113 17.1678 17.0856 17.3421C17.26 17.5165 17.3579 17.753 17.3579 17.9995C17.3579 18.2461 17.26 18.4826 17.0856 18.6569L9.65751 26.085C9.57126 26.1715 9.4688 26.2401 9.35599 26.2869C9.24319 26.3337 9.12226 26.3578 9.00013 26.3578C8.878 26.3578 8.75706 26.3337 8.64426 26.2869C8.53145 26.2401 8.42899 26.1715 8.34274 26.085L0.914642 18.6569C0.740293 18.4826 0.642345 18.2461 0.642345 17.9995C0.642345 17.7529 0.740293 17.5165 0.914642 17.3421C1.08899 17.1678 1.32546 17.0698 1.57203 17.0698C1.8186 17.0698 2.05507 17.1678 2.22942 17.3421L8.07161 23.1862L8.07162 1.2863C8.07162 1.04004 8.16944 0.803872 8.34357 0.629743C8.5177 0.455613 8.75387 0.357788 9.00013 0.357788Z" fill="white" fill-opacity="0.6"/>
</g>
</svg>
